<?xml version="1.0" encoding="UTF-8"?>
<svg id="Layer_1" xmlns="http://www.w3.org/2000/svg" version="1.1" viewBox="0 0 90.8 90.9">
  <!-- Generator: Adobe Illustrator 30.0.0, SVG Export Plug-In . SVG Version: 2.1.1 Build 123)  -->
  <defs>
    <style>
      .st0 {
        fill: #eef4cc;
      }

      .st1 {
        fill: #f56431;
      }

      .st2 {
        fill: #004225;
      }

      .st3 {
        fill: #e8dcea;
      }
    </style>
  </defs>
  <g>
    <rect class="st3" x="10" y="10.2" width="70.5" height="70.9"/>
    <path class="st0" d="M82.5,83.2H7.9V8.1h74.6v75ZM12,79h66.4V12.2H12v66.8Z"/>
  </g>
  <g>
    <path class="st1" d="M28.7,45.2c-.1.3-.4.5-.6.6.3.1.5.3.6.6.1-.3.4-.5.6-.6-.3-.1-.5-.3-.6-.6ZM28.7,45.2c-.1.3-.4.5-.6.6.3.1.5.3.6.6.1-.3.4-.5.6-.6-.3-.1-.5-.3-.6-.6ZM28.7,45.2c-.1.3-.4.5-.6.6.3.1.5.3.6.6.1-.3.4-.5.6-.6-.3-.1-.5-.3-.6-.6ZM61.7,73.8c0,.6-.1,1.2-.1,1.8v2.1c0,.2,0,.4.1.6,0-.2.1-.4.1-.6v-2.1c0-.6,0-1.2-.1-1.8ZM28.7,45.2c-.1.3-.4.5-.6.6.3.1.5.3.6.6.1-.3.4-.5.6-.6-.3-.1-.5-.3-.6-.6ZM45.2,33.9c-.6,6.1-5.3,11-11.2,11.9,6,.9,10.6,5.8,11.2,11.9.6-6.1,5.2-11,11.2-11.9-6-.9-10.6-5.8-11.2-11.9ZM61.7,45.1c-.1.3-.4.6-.7.7.3.1.5.4.7.7.1-.3.4-.6.7-.7-.3-.1-.5-.4-.7-.7ZM61.7,73.8c0,.6-.1,1.2-.1,1.8v2.1c0,.2,0,.4.1.6,0-.2.1-.4.1-.6v-2.1c0-.6,0-1.2-.1-1.8ZM28.7,45.2c-.1.3-.4.5-.6.6.3.1.5.3.6.6.1-.3.4-.5.6-.6-.3-.1-.5-.3-.6-.6ZM45.2,33.9c-.6,6.1-5.3,11-11.2,11.9,6,.9,10.6,5.8,11.2,11.9.6-6.1,5.2-11,11.2-11.9-6-.9-10.6-5.8-11.2-11.9ZM61.7,45.1c-.1.3-.4.6-.7.7.3.1.5.4.7.7.1-.3.4-.6.7-.7-.3-.1-.5-.4-.7-.7ZM61.7,73.8c0,.6-.1,1.2-.1,1.8v2.1c0,.2,0,.4.1.6,0-.2.1-.4.1-.6v-2.1c0-.6,0-1.2-.1-1.8ZM28.7,45.2c-.1.3-.4.5-.6.6.3.1.5.3.6.6.1-.3.4-.5.6-.6-.3-.1-.5-.3-.6-.6ZM45.2,33.9c-.6,6.1-5.3,11-11.2,11.9,6,.9,10.6,5.8,11.2,11.9.6-6.1,5.2-11,11.2-11.9-6-.9-10.6-5.8-11.2-11.9ZM61.7,45.1c-.1.3-.4.6-.7.7.3.1.5.4.7.7.1-.3.4-.6.7-.7-.3-.1-.5-.4-.7-.7ZM61.7,73.8c0,.6-.1,1.2-.1,1.8v2.1c0,.2,0,.4.1.6,0-.2.1-.4.1-.6v-2.1c0-.6,0-1.2-.1-1.8ZM28.7,45.2c-.1.3-.4.5-.6.6.3.1.5.3.6.6.1-.3.4-.5.6-.6-.3-.1-.5-.3-.6-.6ZM45.2,33.9c-.6,6.1-5.3,11-11.2,11.9,6,.9,10.6,5.8,11.2,11.9.6-6.1,5.2-11,11.2-11.9-6-.9-10.6-5.8-11.2-11.9ZM61.7,45.1c-.1.3-.4.6-.7.7.3.1.5.4.7.7.1-.3.4-.6.7-.7-.3-.1-.5-.4-.7-.7ZM61.7,73.8c0,.6-.1,1.2-.1,1.8v2.1c0,.2,0,.4.1.6,0-.2.1-.4.1-.6v-2.1c0-.6,0-1.2-.1-1.8ZM28.7,45.2c-.1.3-.4.5-.6.6.3.1.5.3.6.6.1-.3.4-.5.6-.6-.3-.1-.5-.3-.6-.6ZM45.2,33.9c-.6,6.1-5.3,11-11.2,11.9,6,.9,10.6,5.8,11.2,11.9.6-6.1,5.2-11,11.2-11.9-6-.9-10.6-5.8-11.2-11.9ZM61.7,45.1c-.1.3-.4.6-.7.7.3.1.5.4.7.7.1-.3.4-.6.7-.7-.3-.1-.5-.4-.7-.7ZM61.7,73.8c0,.6-.1,1.2-.1,1.8v2.1c0,.2,0,.4.1.6,0-.2.1-.4.1-.6v-2.1c0-.6,0-1.2-.1-1.8ZM28.7,45.2c-.1.3-.4.5-.6.6.3.1.5.3.6.6.1-.3.4-.5.6-.6-.3-.1-.5-.3-.6-.6ZM45.2,33.9c-.6,6.1-5.3,11-11.2,11.9,6,.9,10.6,5.8,11.2,11.9.6-6.1,5.2-11,11.2-11.9-6-.9-10.6-5.8-11.2-11.9ZM61.7,45.1c-.1.3-.4.6-.7.7.3.1.5.4.7.7.1-.3.4-.6.7-.7-.3-.1-.5-.4-.7-.7ZM61.7,73.8c0,.6-.1,1.2-.1,1.8v2.1c0,.2,0,.4.1.6,0-.2.1-.4.1-.6v-2.1c0-.6,0-1.2-.1-1.8ZM28.7,45.2c-.1.3-.4.5-.6.6.3.1.5.3.6.6.1-.3.4-.5.6-.6-.3-.1-.5-.3-.6-.6ZM45.2,33.9c-.6,6.1-5.3,11-11.2,11.9,6,.9,10.6,5.8,11.2,11.9.6-6.1,5.2-11,11.2-11.9-6-.9-10.6-5.8-11.2-11.9ZM61.7,45.1c-.1.3-.4.6-.7.7.3.1.5.4.7.7.1-.3.4-.6.7-.7-.3-.1-.5-.4-.7-.7ZM61.7,73.8c0,.6-.1,1.2-.1,1.8v2.1c0,.2,0,.4.1.6,0-.2.1-.4.1-.6v-2.1c0-.6,0-1.2-.1-1.8ZM28.7,45.2c-.1.3-.4.5-.6.6.3.1.5.3.6.6.1-.3.4-.5.6-.6-.3-.1-.5-.3-.6-.6ZM45.2,33.9c-.6,6.1-5.3,11-11.2,11.9,6,.9,10.6,5.8,11.2,11.9.6-6.1,5.2-11,11.2-11.9-6-.9-10.6-5.8-11.2-11.9ZM61.7,45.1c-.1.3-.4.6-.7.7.3.1.5.4.7.7.1-.3.4-.6.7-.7-.3-.1-.5-.4-.7-.7ZM61.7,73.8c0,.6-.1,1.2-.1,1.8v2.1c0,.2,0,.4.1.6,0-.2.1-.4.1-.6v-2.1c0-.6,0-1.2-.1-1.8ZM76.4,12.4H14.1c-1.1,0-2,.9-2,2v10.4c.5-6.9,6.2-12.4,13.2-12.4h2.1c.5,0,1,.3,1.2.7.2-.4.7-.7,1.2-.7h2.1c6.9,0,12.6,5.3,13.2,12,.6-6.7,6.3-12,13.2-12h2.1c.6,0,1.1.3,1.3.8.2-.5.7-.8,1.3-.8h2.1c7.3,0,13.3,6,13.3,13.3v2.1c0,.8-.6,1.4-1.4,1.4h-2.1c-6.7,0-12.2-5-13.1-11.4-.9,6.4-6.5,11.4-13.1,11.4h-2.1c-.6,0-1.2-.4-1.3-1-.2.6-.7,1-1.3,1h-2.1c-6.6,0-12-4.8-13.1-11.1-1,6.3-6.5,11.1-13.1,11.1h-2.1c-.7,0-1.2-.5-1.4-1.1v2.2c.1-.6.7-1.1,1.4-1.1h2.1c6.6,0,12,4.8,13.1,11.1,1-6.3,6.5-11.1,13.1-11.1h2.1c.6,0,1.2.4,1.3,1,.2-.6.7-1,1.3-1h2.1c6.7,0,12.2,5,13.1,11.4.9-6.4,6.5-11.4,13.1-11.4h2.1c.8,0,1.4.6,1.4,1.4v2.1c0,6.6-4.9,12.2-11.3,13.1,6.4,1,11.3,6.5,11.3,13.1v2.1c0,.8-.6,1.4-1.4,1.4h-2.1c-6.7,0-12.2-5-13.1-11.4-.9,6.4-6.5,11.4-13.1,11.4h-2.1c-.6,0-1.2-.4-1.3-1-.2.6-.7,1-1.3,1h-2.1c-6.6,0-12-4.8-13.1-11.1-1.1,6.3-6.5,11.1-13.1,11.1h-2.1c-.7,0-1.2-.5-1.4-1.1v2.2c.1-.6.7-1.1,1.4-1.1h2.1c6.6,0,12,4.8,13.1,11.1,1-6.3,6.5-11.1,13.1-11.1h2.1c.6,0,1.2.4,1.3,1,.2-.6.7-1,1.3-1h2.1c6.7,0,12.2,5,13.1,11.4.9-6.4,6.5-11.4,13.1-11.4h2.1c.8,0,1.4.6,1.4,1.4v2.1c0,7.3-6,13.3-13.3,13.3h-2.1c-.6,0-1.1-.3-1.3-.8-.2.5-.7.8-1.3.8h-2.1c-6.9,0-12.6-5.3-13.2-12-.6,6.7-6.3,12-13.2,12h-2.1c-.5,0-1-.3-1.2-.7-.2.4-.7.7-1.2.7h-2.1c-7,0-12.8-5.5-13.2-12.4v10.4c0,1.1.9,2,2,2h62.3c1.1,0,2-.9,2-2V14.4c0-1.1-.9-2-2-2ZM61.8,75.7c0-.6,0-1.2-.1-1.8,0,.6-.1,1.2-.1,1.8v2.1c0,.2,0,.4.1.6,0-.2.1-.4.1-.6v-2.1ZM62.4,45.8c-.3-.1-.5-.4-.7-.7-.1.3-.4.6-.7.7.3.1.5.4.7.7.1-.3.4-.6.7-.7ZM56.4,45.8c-6-.9-10.6-5.8-11.2-11.9-.6,6.1-5.3,11-11.2,11.9,6,.9,10.6,5.8,11.2,11.9.6-6.1,5.2-11,11.2-11.9ZM29.3,45.8c-.3-.1-.5-.3-.6-.6-.1.3-.4.5-.6.6.3.1.5.3.6.6.1-.3.4-.5.6-.6ZM61.7,73.8c0,.6-.1,1.2-.1,1.8v2.1c0,.2,0,.4.1.6,0-.2.1-.4.1-.6v-2.1c0-.6,0-1.2-.1-1.8ZM61.7,45.1c-.1.3-.4.6-.7.7.3.1.5.4.7.7.1-.3.4-.6.7-.7-.3-.1-.5-.4-.7-.7ZM45.2,33.9c-.6,6.1-5.3,11-11.2,11.9,6,.9,10.6,5.8,11.2,11.9.6-6.1,5.2-11,11.2-11.9-6-.9-10.6-5.8-11.2-11.9ZM28.7,45.2c-.1.3-.4.5-.6.6.3.1.5.3.6.6.1-.3.4-.5.6-.6-.3-.1-.5-.3-.6-.6ZM61.7,73.8c0,.6-.1,1.2-.1,1.8v2.1c0,.2,0,.4.1.6,0-.2.1-.4.1-.6v-2.1c0-.6,0-1.2-.1-1.8ZM61.7,45.1c-.1.3-.4.6-.7.7.3.1.5.4.7.7.1-.3.4-.6.7-.7-.3-.1-.5-.4-.7-.7ZM45.2,33.9c-.6,6.1-5.3,11-11.2,11.9,6,.9,10.6,5.8,11.2,11.9.6-6.1,5.2-11,11.2-11.9-6-.9-10.6-5.8-11.2-11.9ZM28.7,45.2c-.1.3-.4.5-.6.6.3.1.5.3.6.6.1-.3.4-.5.6-.6-.3-.1-.5-.3-.6-.6ZM61.7,73.8c0,.6-.1,1.2-.1,1.8v2.1c0,.2,0,.4.1.6,0-.2.1-.4.1-.6v-2.1c0-.6,0-1.2-.1-1.8ZM61.7,45.1c-.1.3-.4.6-.7.7.3.1.5.4.7.7.1-.3.4-.6.7-.7-.3-.1-.5-.4-.7-.7ZM45.2,33.9c-.6,6.1-5.3,11-11.2,11.9,6,.9,10.6,5.8,11.2,11.9.6-6.1,5.2-11,11.2-11.9-6-.9-10.6-5.8-11.2-11.9ZM28.7,45.2c-.1.3-.4.5-.6.6.3.1.5.3.6.6.1-.3.4-.5.6-.6-.3-.1-.5-.3-.6-.6ZM61.7,73.8c0,.6-.1,1.2-.1,1.8v2.1c0,.2,0,.4.1.6,0-.2.1-.4.1-.6v-2.1c0-.6,0-1.2-.1-1.8ZM61.7,45.1c-.1.3-.4.6-.7.7.3.1.5.4.7.7.1-.3.4-.6.7-.7-.3-.1-.5-.4-.7-.7ZM45.2,33.9c-.6,6.1-5.3,11-11.2,11.9,6,.9,10.6,5.8,11.2,11.9.6-6.1,5.2-11,11.2-11.9-6-.9-10.6-5.8-11.2-11.9ZM28.7,45.2c-.1.3-.4.5-.6.6.3.1.5.3.6.6.1-.3.4-.5.6-.6-.3-.1-.5-.3-.6-.6ZM61.7,73.8c0,.6-.1,1.2-.1,1.8v2.1c0,.2,0,.4.1.6,0-.2.1-.4.1-.6v-2.1c0-.6,0-1.2-.1-1.8ZM61.7,45.1c-.1.3-.4.6-.7.7.3.1.5.4.7.7.1-.3.4-.6.7-.7-.3-.1-.5-.4-.7-.7ZM45.2,33.9c-.6,6.1-5.3,11-11.2,11.9,6,.9,10.6,5.8,11.2,11.9.6-6.1,5.2-11,11.2-11.9-6-.9-10.6-5.8-11.2-11.9ZM28.7,45.2c-.1.3-.4.5-.6.6.3.1.5.3.6.6.1-.3.4-.5.6-.6-.3-.1-.5-.3-.6-.6ZM61.7,73.8c0,.6-.1,1.2-.1,1.8v2.1c0,.2,0,.4.1.6,0-.2.1-.4.1-.6v-2.1c0-.6,0-1.2-.1-1.8ZM61.7,45.1c-.1.3-.4.6-.7.7.3.1.5.4.7.7.1-.3.4-.6.7-.7-.3-.1-.5-.4-.7-.7ZM45.2,33.9c-.6,6.1-5.3,11-11.2,11.9,6,.9,10.6,5.8,11.2,11.9.6-6.1,5.2-11,11.2-11.9-6-.9-10.6-5.8-11.2-11.9ZM28.7,45.2c-.1.3-.4.5-.6.6.3.1.5.3.6.6.1-.3.4-.5.6-.6-.3-.1-.5-.3-.6-.6ZM61.7,73.8c0,.6-.1,1.2-.1,1.8v2.1c0,.2,0,.4.1.6,0-.2.1-.4.1-.6v-2.1c0-.6,0-1.2-.1-1.8ZM61.7,45.1c-.1.3-.4.6-.7.7.3.1.5.4.7.7.1-.3.4-.6.7-.7-.3-.1-.5-.4-.7-.7ZM45.2,33.9c-.6,6.1-5.3,11-11.2,11.9,6,.9,10.6,5.8,11.2,11.9.6-6.1,5.2-11,11.2-11.9-6-.9-10.6-5.8-11.2-11.9ZM28.7,45.2c-.1.3-.4.5-.6.6.3.1.5.3.6.6.1-.3.4-.5.6-.6-.3-.1-.5-.3-.6-.6ZM61.7,73.8c0,.6-.1,1.2-.1,1.8v2.1c0,.2,0,.4.1.6,0-.2.1-.4.1-.6v-2.1c0-.6,0-1.2-.1-1.8ZM28.7,45.2c-.1.3-.4.5-.6.6.3.1.5.3.6.6.1-.3.4-.5.6-.6-.3-.1-.5-.3-.6-.6ZM28.7,45.2c-.1.3-.4.5-.6.6.3.1.5.3.6.6.1-.3.4-.5.6-.6-.3-.1-.5-.3-.6-.6ZM28.7,45.2c-.1.3-.4.5-.6.6.3.1.5.3.6.6.1-.3.4-.5.6-.6-.3-.1-.5-.3-.6-.6ZM28.7,45.2c-.1.3-.4.5-.6.6.3.1.5.3.6.6.1-.3.4-.5.6-.6-.3-.1-.5-.3-.6-.6ZM12.2,33.6v24.4c.4-6.2,5.2-11.3,11.3-12.2-6.1-.9-10.8-6-11.3-12.2Z"/>
    <g>
      <g>
        <path class="st0" d="M12.2,30.3v3.3c0-.3,0-.6,0-.9v-2.1c0-.1,0-.2,0-.3Z"/>
        <path class="st0" d="M12.2,24.8v3.3c0,0,0-.2,0-.3v-2.1c0-.3,0-.6,0-.9Z"/>
      </g>
      <g>
        <path class="st0" d="M12.2,63.5v3.3c0-.3,0-.6,0-.9v-2.1c0-.1,0-.2,0-.3Z"/>
        <path class="st0" d="M12.2,58v3.3c0,0,0-.2,0-.3v-2.1c0-.3,0-.6,0-.9Z"/>
      </g>
      <g>
        <path class="st0" d="M61.8,75.7v2.1c0,.2,0,.4-.1.6,0-.2-.1-.4-.1-.6v-2.1c0-.6,0-1.2.1-1.8,0,.6.1,1.2.1,1.8Z"/>
        <path class="st0" d="M61.8,75.7v2.1c0,.2,0,.4-.1.6,0-.2-.1-.4-.1-.6v-2.1c0-.6,0-1.2.1-1.8,0,.6.1,1.2.1,1.8Z"/>
      </g>
    </g>
  </g>
  <path class="st2" d="M90.8,90.9H0V0h90.8v90.9ZM7.8,83.1h75.1V7.8H7.8v75.3Z"/>
</svg>